<?xml version="1.0" encoding="UTF-8"?>
<svg width="259px" height="95px" viewBox="0 0 259 95" version="1.1" xmlns="http://www.w3.org/2000/svg" xmlns:xlink="http://www.w3.org/1999/xlink">
    <!-- Generator: Sketch 42 (36781) - http://www.bohemiancoding.com/sketch -->
    <title>Logo-3lines-Yellow+White-Transparent</title>
    <desc>Created with Sketch.</desc>
    <defs></defs>
    <g id="Page-1" stroke="none" stroke-width="1" fill="none" fill-rule="evenodd">
        <g id="Logo-3lines-Yellow+White-Transparent">
            <g id="Shield" transform="translate(208.000000, 31.995400)">
                <path d="M36.3863,41.6828 L28.0773,49.9928 L28.0773,58.7918 C31.1373,57.5598 35.8193,55.2038 39.8553,51.1658 C40.9663,50.0558 41.9073,49.0078 42.7093,48.0058 L36.3863,41.6828 Z M8.1043,48.0068 C8.9063,49.0088 9.8473,50.0558 10.9573,51.1658 C14.9943,55.2038 19.6763,57.5598 22.7373,58.7918 L22.7373,49.9918 L14.4283,41.6828 L8.1043,48.0068 Z M22.7373,42.4378 L22.7373,33.3748 L18.2053,37.9068 L22.7373,42.4378 Z M28.0773,33.3748 L28.0773,42.4388 L32.6093,37.9068 L28.0773,33.3748 Z" id="lower-shield-fill-blue" fill="#003D7D"></path>
                <path d="M3.6089,33.8346 C3.6089,37.2766 3.7779,40.2096 5.1929,43.3646 L10.6519,37.9066 L3.6089,30.8646 L3.6089,33.8346 Z M38.1589,4.4616 C34.2179,3.8586 30.4749,3.6006 28.0779,3.4896 L28.0779,11.4396 L32.0499,7.4666 L35.8269,11.2436 L28.0779,18.9926 L28.0779,26.7506 L39.7039,15.1216 L43.4809,18.8966 L32.3169,30.0636 L36.3859,34.1296 L47.2039,23.3136 L47.2039,6.3556 C45.3569,5.8506 42.1999,5.0796 38.1589,4.4616 L38.1589,4.4616 Z M45.6189,43.3626 C47.0329,40.2096 47.2039,37.2756 47.2039,33.8346 L47.2039,30.8666 L40.1629,37.9066 L45.6189,43.3626 Z M3.6089,6.3556 L3.6089,23.3116 L14.4289,34.1296 L18.4989,30.0616 L7.3339,18.8976 L11.1099,15.1206 L22.7369,26.7466 L22.7369,18.9926 L14.9879,11.2436 L18.7639,7.4666 L22.7369,11.4396 L22.7369,3.4906 C20.3359,3.6016 16.5959,3.8586 12.6539,4.4616 C8.6129,5.0796 5.4559,5.8506 3.6089,6.3556 L3.6089,6.3556 Z" id="upper-shield-fill-blue" fill="#003D7D"></path>
                <path d="M22.7368,33.3771 L22.7368,42.4401 L18.2048,37.9081 L22.7368,33.3771 Z M10.6528,37.9081 L5.1938,43.3661 C3.7778,40.2121 3.6088,37.2791 3.6088,33.8361 L3.6088,30.8651 L10.6528,37.9081 Z M22.7368,49.9931 L22.7368,58.7931 C19.6758,57.5621 14.9938,55.2041 10.9578,51.1681 C9.8468,50.0581 8.9058,49.0111 8.1048,48.0091 L14.4288,41.6851 L22.7368,49.9931 Z M1.4058,4.7021 L1.4058,33.8361 C1.4058,40.2161 1.9798,45.3061 9.3998,52.7261 C15.4198,58.7451 22.7768,61.2621 24.9058,61.8961 L24.9058,49.0941 L3.6088,27.7961 L3.6088,26.3801 L24.9058,47.6791 L24.9058,33.4011 L8.8678,17.3631 L7.3338,18.8981 L18.4988,30.0621 L14.4288,34.1321 L3.6088,23.3121 L3.6088,6.3561 C5.4558,5.8501 8.6128,5.0801 12.6538,4.4611 C16.5958,3.8591 20.3358,3.6011 22.7368,3.4901 L22.7368,11.4401 L18.7638,7.4671 L17.2298,9.0021 L24.9068,16.6781 L24.9068,1.2121 C23.2958,1.2441 18.0138,1.4131 12.3208,2.2841 C6.5458,3.1671 2.5148,4.3561 1.4058,4.7021 L1.4058,4.7021 Z M47.2038,33.8361 C47.2038,37.2781 47.0328,40.2111 45.6188,43.3641 L40.1628,37.9081 L47.2038,30.8671 L47.2038,33.8361 Z M39.8558,51.1681 C35.8188,55.2041 31.1378,57.5621 28.0778,58.7931 L28.0778,49.9931 L36.3858,41.6851 L42.7088,48.0081 C41.9068,49.0101 40.9658,50.0581 39.8558,51.1681 L39.8558,51.1681 Z M28.0778,42.4401 L28.0778,33.3771 L32.6098,37.9081 L28.0778,42.4401 Z M38.4918,2.2841 C32.7978,1.4131 27.5158,1.2441 25.9078,1.2121 L25.9078,16.6781 L33.5848,9.0011 L32.0498,7.4671 L28.0778,11.4401 L28.0778,3.4901 C30.4748,3.6001 34.2178,3.8591 38.1588,4.4611 C42.1998,5.0801 45.3568,5.8501 47.2038,6.3561 L47.2038,23.3141 L36.3858,34.1321 L32.3178,30.0631 L43.4808,18.8971 L41.9468,17.3631 L25.9078,33.4011 L25.9078,47.6791 L47.2038,26.3821 L47.2038,27.7981 L25.9078,49.0951 L25.9078,61.8971 C28.0368,61.2621 35.3928,58.7461 41.4138,52.7261 C48.8338,45.3061 49.4068,40.2161 49.4068,33.8361 L49.4068,4.7021 C48.2978,4.3561 44.2678,3.1671 38.4918,2.2841 L38.4918,2.2841 Z M39.7038,15.1211 L28.0778,26.7501 L28.0778,18.9931 L35.8268,11.2441 L34.2928,9.7101 L25.9078,18.0941 L25.9078,31.9851 L41.2378,16.6551 L39.7038,15.1211 Z M14.9878,11.2441 L22.7368,18.9931 L22.7368,26.7461 L11.1108,15.1211 L9.5758,16.6551 L24.9058,31.9851 L24.9068,18.0941 L16.5218,9.7101 L14.9878,11.2441 Z" id="overall-shield-fill-white" fill="#FEFEFE"></path>
                <path d="M49.4068,33.8346 C49.4068,40.2136 48.8338,45.3036 41.4138,52.7236 C35.3928,58.7446 28.0368,61.2606 25.9078,61.8936 L25.9078,49.0926 L47.2038,27.7986 L47.2038,26.3816 L25.9078,47.6766 L25.9078,33.3996 L41.9468,17.3636 L41.2388,16.6546 L25.9078,31.9836 L25.9078,18.0946 L34.2928,9.7096 L33.5848,9.0016 L25.9078,16.6776 L25.9078,1.2116 C27.5158,1.2446 32.7988,1.4136 38.4918,2.2836 C44.2678,3.1676 48.2978,4.3556 49.4068,4.7026 L49.4068,33.8346 Z M9.3998,52.7236 C1.9798,45.3036 1.4058,40.2136 1.4058,33.8346 L1.4058,4.7026 C2.5148,4.3556 6.5458,3.1676 12.3208,2.2836 C18.0138,1.4136 23.2958,1.2446 24.9068,1.2116 L24.9068,16.6776 L17.2298,9.0016 L16.5218,9.7096 L24.9068,18.0936 L24.9068,31.9836 L9.5758,16.6546 L8.8678,17.3636 L24.9068,33.3996 L24.9068,47.6766 L3.6088,26.3796 L3.6088,27.7956 L24.9068,49.0926 L24.9068,61.8936 C22.7768,61.2596 15.4198,58.7446 9.3998,52.7236 L9.3998,52.7236 Z M50.0238,3.9176 C49.9788,3.9026 45.5148,2.4126 38.6338,1.3596 C31.7578,0.3086 25.4708,0.2706 25.4088,0.2706 C25.3418,0.2706 19.0548,0.3086 12.1798,1.3596 C5.2988,2.4126 0.8338,3.9026 0.7888,3.9176 L0.4708,4.0246 L0.4708,33.8346 C0.4708,40.2266 1.0798,45.7256 8.7388,53.3846 C16.0148,60.6616 25.2058,62.9516 25.2978,62.9726 L25.4068,63.0006 L25.5168,62.9726 C25.6098,62.9516 34.7988,60.6616 42.0738,53.3846 C49.7328,45.7266 50.3418,40.2276 50.3418,33.8346 L50.3418,4.0246 L50.0238,3.9176 Z" id="shield-outline-&amp;-thin-blue-interior" fill="#003466"></path>
            </g>
            <g id="University" transform="translate(3.000000, 71.995400)" fill="#FEFEFE">
                <polygon id="Y" points="188.4082 11.048 188.4082 19.957 185.9662 19.957 185.9662 11.104 177.2782 0.528 180.3042 0.528 187.1872 9.133 194.3482 0.528 197.0682 0.528"></polygon>
                <polygon id="T" points="167.5127 2.7765 167.5127 19.9575 165.0707 19.9575 165.0707 2.7765 157.0767 2.7765 157.0767 0.5285 175.5067 0.5285 175.5067 2.7765"></polygon>
                <polygon id="I" points="150.473 19.957 152.916 19.957 152.916 0.528 150.473 0.528"></polygon>
                <path d="M141.8462,19.9572 L129.0232,19.9572 C127.7192,19.9572 126.6642,18.9022 126.6642,17.5982 L126.6642,15.5442 L128.9952,14.9052 L128.9952,17.7092 L141.7072,17.7092 L141.7072,11.1592 L129.2172,11.1592 C127.9132,11.1592 126.8582,10.1032 126.8582,8.8002 L126.8582,2.8882 C126.8582,1.5832 127.9132,0.5282 129.2172,0.5282 L141.5132,0.5282 C142.8182,0.5282 143.8722,1.5832 143.8722,2.8882 L143.8722,4.9412 L141.5412,5.5802 L141.5412,2.7762 L129.3562,2.7762 L129.3562,8.8542 L141.8462,8.8542 C143.1512,8.8542 144.2052,9.9102 144.2052,11.2142 L144.2052,17.5982 C144.2052,18.9022 143.1512,19.9572 141.8462,19.9572" id="S"></path>
                <path d="M118.0367,4.2472 C118.0367,3.4712 117.6757,2.8322 116.8987,2.8322 L106.0187,2.8322 L106.0187,9.6872 L116.8987,9.6872 C117.6757,9.6872 118.0367,9.0492 118.0367,8.2722 L118.0367,4.2472 Z M118.2867,19.9572 L110.3757,11.9912 L106.0187,11.9912 L106.0187,19.9572 L103.5757,19.9572 L103.5757,0.5282 L118.1197,0.5282 C119.4247,0.5282 120.4787,1.5832 120.4787,2.8882 L120.4787,9.6322 C120.4787,10.9362 119.4247,11.9912 118.1197,11.9912 L113.5957,11.9912 L121.5337,19.9572 L118.2867,19.9572 Z" id="R"></path>
                <polygon id="E" points="81.7925 19.9572 81.7925 0.5282 97.9465 0.5282 97.9465 2.7762 84.2355 2.7762 84.2355 8.7162 93.0845 8.7162 93.0845 10.9652 84.2355 10.9652 84.2355 17.7092 98.1405 17.7092 98.1405 19.9572"></polygon>
                <polygon id="U" points="68.2247 19.9572 66.8087 19.9572 57.3717 0.5282 60.0087 0.5282 67.5587 16.3772 75.1077 0.5282 77.6897 0.5282"></polygon>
                <polygon id="I" points="50.824 19.957 53.267 19.957 53.267 0.528 50.824 0.528"></polygon>
                <polygon id="N" points="41.8643 19.9572 27.3483 4.4972 27.3483 19.9572 24.9613 19.9572 24.9613 0.5282 26.9873 0.5282 41.5033 15.9602 41.5033 0.5282 43.8903 0.5282 43.8903 19.9572"></polygon>
                <path d="M16.0567,19.9572 L2.8727,19.9572 C1.5687,19.9572 0.5137,18.9022 0.5137,17.5982 L0.5137,0.5282 L2.9837,0.5282 L2.9837,17.6532 L15.9457,17.6532 L15.9457,0.5282 L18.4157,0.5282 L18.4157,17.5982 C18.4157,18.9022 17.3617,19.9572 16.0567,19.9572" id="U"></path>
            </g>
            <g id="Arizona" transform="translate(0.000000, 34.995400)" fill="#FFD200">
                <path d="M184.9024,7.0578 L180.6064,15.9848 L189.1984,15.9848 L184.9024,7.0578 Z M193.7384,25.4518 L191.6084,21.0238 L178.1964,21.0238 L176.0664,25.4518 L170.0234,25.4518 L182.6674,0.2538 L187.6964,0.2538 L200.1314,25.4518 L193.7384,25.4518 Z" id="Fill-16"></path>
                <polygon id="Fill-15" points="162.0669 25.4513 145.9649 9.5053 145.9649 25.4513 140.5869 25.4513 140.5869 0.2543 144.7779 0.2543 160.8799 16.2003 160.8799 0.2543 166.2579 0.2543 166.2579 25.4513"></polygon>
                <path d="M113.351,20.124 L127.916,20.124 L127.916,5.582 L113.351,5.582 L113.351,20.124 Z M128.23,25.451 L113.037,25.451 C110.452,25.451 107.343,22.283 107.343,19.584 L107.343,6.122 C107.343,3.422 110.452,0.254 113.037,0.254 L128.23,0.254 C130.814,0.254 133.923,3.422 133.923,6.122 L133.923,19.584 C133.923,22.283 130.814,25.451 128.23,25.451 L128.23,25.451 Z" id="Fill-14"></path>
                <polygon id="Fill-13" points="77.4869 25.4513 77.4869 22.7873 92.4009 5.2943 78.9189 5.2943 78.9189 0.2543 101.7969 0.2543 101.7969 2.7743 86.7079 20.4123 101.9359 20.4123 101.9359 25.4513"></polygon>
                <polygon id="Fill-12" points="66.104 25.451 71.972 25.451 71.972 0.254 66.104 0.254"></polygon>
                <path d="M52.7681,6.9855 C52.7681,5.9775 52.2091,5.1495 51.2311,5.1495 L39.9151,5.1495 L39.9151,11.2335 L51.2311,11.2335 C52.2091,11.2335 52.7681,10.5855 52.7681,9.5775 L52.7681,6.9855 Z M53.6421,25.4515 L43.8621,16.1285 L39.9151,16.1285 L39.9151,25.4515 L34.3611,25.4515 L34.3611,0.2545 L53.0821,0.2545 C55.7021,0.2545 58.2521,2.8815 58.2521,5.5825 L58.2521,10.8005 C58.2521,13.5015 55.7021,16.1285 53.0821,16.1285 L51.0921,16.1285 L61.1851,25.4515 L53.6421,25.4515 Z" id="Fill-11"></path>
                <path d="M14.8789,7.0578 L10.5829,15.9848 L19.1749,15.9848 L14.8789,7.0578 Z M23.7149,25.4518 L21.5849,21.0238 L8.1729,21.0238 L6.0429,25.4518 L-0.0001,25.4518 L12.6439,0.2538 L17.6729,0.2538 L30.1079,25.4518 L23.7149,25.4518 Z" id="Fill-10"></path>
            </g>
            <g id="Northern" transform="translate(3.000000, 0.000000)" fill="#FFD200">
                <polygon id="Fill-9" points="251.0362 25.1967 234.4422 9.2507 234.4422 25.1967 228.8992 25.1967 228.8992 -0.0003 233.2192 -0.0003 249.8122 15.9457 249.8122 -0.0003 255.3562 -0.0003 255.3562 25.1967"></polygon>
                <path d="M214.6045,6.7309 C214.6045,5.7229 214.0285,4.8959 213.0205,4.8959 L201.3585,4.8959 L201.3585,10.9789 L213.0205,10.9789 C214.0285,10.9789 214.6045,10.3309 214.6045,9.3229 L214.6045,6.7309 Z M215.5045,25.1969 L205.4255,15.8739 L201.3585,15.8739 L201.3585,25.1969 L195.6345,25.1969 L195.6345,-0.0001 L214.9285,-0.0001 C217.6275,-0.0001 220.2555,2.6269 220.2555,5.3269 L220.2555,10.5459 C220.2555,13.2459 217.6275,15.8739 214.9285,15.8739 L212.8765,15.8739 L223.2795,25.1969 L215.5045,25.1969 Z" id="Fill-8"></path>
                <polygon id="Fill-7" points="165.2149 25.1967 165.2149 -0.0003 188.2879 -0.0003 188.2879 5.1827 171.2619 5.1827 171.2619 9.8627 181.7009 9.8627 181.7009 15.0457 171.2619 15.0457 171.2619 20.0127 188.5399 20.0127 188.5399 25.1967"></polygon>
                <polygon id="Fill-6" points="150.9571 25.1967 150.9571 14.7217 136.5591 14.7217 136.5591 25.1967 130.5111 25.1967 130.5111 -0.0003 136.5591 -0.0003 136.5591 9.5387 150.9571 9.5387 150.9571 -0.0003 157.0041 -0.0003 157.0041 25.1967"></polygon>
                <polygon id="Fill-5" points="114.9937 5.1831 114.9937 25.1971 108.9467 25.1971 108.9467 5.1831 98.5797 5.1831 98.5797 0.0001 125.3607 0.0001 125.3607 5.1831"></polygon>
                <path d="M88.2457,6.7309 C88.2457,5.7229 87.6697,4.8959 86.6617,4.8959 L74.9997,4.8959 L74.9997,10.9789 L86.6617,10.9789 C87.6697,10.9789 88.2457,10.3309 88.2457,9.3229 L88.2457,6.7309 Z M89.1457,25.1969 L79.0667,15.8739 L74.9997,15.8739 L74.9997,25.1969 L69.2757,25.1969 L69.2757,-0.0001 L88.5697,-0.0001 C91.2687,-0.0001 93.8967,2.6269 93.8967,5.3269 L93.8967,10.5459 C93.8967,13.2459 91.2687,15.8739 88.5697,15.8739 L86.5177,15.8739 L96.9207,25.1969 L89.1457,25.1969 Z" id="Fill-4"></path>
                <path d="M40.836,20.6579776 L55.846,20.6579776 L55.846,5.53882245 L40.836,5.53882245 L40.836,20.6579776 Z M56.169,26.1964 L40.512,26.1964 C37.848,26.1964 34.645,22.9037054 34.645,20.0965456 L34.645,6.10025442 C34.645,3.29309455 37.848,0.0004 40.512,0.0004 L56.169,0.0004 C58.834,0.0004 62.037,3.29309455 62.037,6.10025442 L62.037,20.0965456 C62.037,22.9037054 58.834,26.1964 56.169,26.1964 L56.169,26.1964 Z" id="Fill-2"></path>
                <polygon id="N" points="21.6825 0.0004 21.6825 15.9454 5.0885 0.0004 0.7685 0.0004 0.7685 25.1964 6.3125 25.1964 6.3125 9.2504 22.9055 25.1964 27.2255 25.1964 27.2255 0.0004"></polygon>
            </g>
        </g>
    </g>
</svg>